<svg width="146" height="40" viewBox="0 0 146 40" fill="none" xmlns="http://www.w3.org/2000/svg">
    <g clip-path="url(#clip0_9:21)">
        <path d="M41.8299 2.89583C41.401 2.02778 40.1757 1.99306 39.6626 2.8125C37.2885 6.55555 33.0381 8.88889 28.1827 8.88889H22.0561C13.9382 8.88889 7.35203 14.8611 7.35203 22.2222C7.35203 22.7083 7.4133 23.1736 7.46691 23.6458C12.3529 20.4722 19.4063 17.7778 29.4081 17.7778C30.082 17.7778 30.6334 18.2778 30.6334 18.8889C30.6334 19.5 30.082 20 29.4081 20C10.155 20 1.99119 30.7014 0.183822 34.7222C-0.321629 35.8542 0.275722 37.1458 1.52403 37.6111C2.78 38.0833 4.20445 37.5347 4.72522 36.4097C4.8401 36.1597 6.32582 33.0833 10.2316 30.118C12.7129 33.1667 17.4304 36.0764 23.626 35.4792C35.6496 34.6875 44.1121 24.9097 44.1121 12.9375C44.1121 9.45139 43.285 5.84028 41.8299 2.89583Z"
              fill="#00D884"/>
    </g>
    <path d="M66.1761 12.152C66.5761 12.152 66.9201 12.288 67.2081 12.56C67.5121 12.832 67.6641 13.16 67.6641 13.544C67.6641 13.752 67.6161 13.968 67.5201 14.192L61.5921 28.064C61.4481 28.368 61.2481 28.6 60.9921 28.76C60.7361 28.92 60.4641 29 60.1761 29C59.9041 28.984 59.6481 28.904 59.4081 28.76C59.1841 28.6 59.0081 28.376 58.8801 28.088L52.9521 14.168C52.8721 14.008 52.8321 13.808 52.8321 13.568C52.8321 13.136 52.9921 12.792 53.3121 12.536C53.6321 12.264 53.9601 12.128 54.2961 12.128C54.5681 12.128 54.8241 12.208 55.0641 12.368C55.3041 12.528 55.4881 12.76 55.6161 13.064L60.4401 24.416L64.8561 13.064C64.9841 12.776 65.1681 12.552 65.4081 12.392C65.6481 12.232 65.9041 12.152 66.1761 12.152ZM80.8952 22.28C80.8792 22.664 80.7272 22.976 80.4392 23.216C80.1512 23.456 79.8152 23.576 79.4312 23.576H71.5112C71.7032 24.52 72.1432 25.264 72.8312 25.808C73.5192 26.336 74.2952 26.6 75.1592 26.6C75.8152 26.6 76.3272 26.544 76.6952 26.432C77.0632 26.304 77.3512 26.176 77.5592 26.048C77.7832 25.904 77.9352 25.808 78.0152 25.76C78.3032 25.616 78.5752 25.544 78.8312 25.544C79.1672 25.544 79.4552 25.664 79.6952 25.904C79.9352 26.144 80.0552 26.424 80.0552 26.744C80.0552 27.176 79.8312 27.568 79.3832 27.92C78.9352 28.288 78.3352 28.6 77.5832 28.856C76.8312 29.112 76.0712 29.24 75.3032 29.24C73.9592 29.24 72.7832 28.96 71.7752 28.4C70.7832 27.84 70.0152 27.072 69.4712 26.096C68.9272 25.104 68.6552 23.992 68.6552 22.76C68.6552 21.384 68.9432 20.176 69.5192 19.136C70.0952 18.096 70.8552 17.304 71.7992 16.76C72.7432 16.2 73.7512 15.92 74.8232 15.92C75.8792 15.92 76.8712 16.208 77.7992 16.784C78.7432 17.36 79.4952 18.136 80.0552 19.112C80.6152 20.088 80.8952 21.144 80.8952 22.28ZM74.8232 18.56C72.9672 18.56 71.8712 19.432 71.5352 21.176H77.8232V21.008C77.7592 20.336 77.4312 19.76 76.8392 19.28C76.2472 18.8 75.5752 18.56 74.8232 18.56ZM93.8119 15.92C94.2279 15.92 94.5719 16.056 94.8439 16.328C95.1159 16.6 95.2519 16.952 95.2519 17.384V28.064C95.2519 30.016 94.6439 31.456 93.4279 32.384C92.2279 33.328 90.6999 33.8 88.8439 33.8C88.3639 33.8 87.6999 33.72 86.8519 33.56C86.0199 33.4 85.4279 33.24 85.0759 33.08C84.2919 32.744 83.8999 32.28 83.8999 31.688C83.8999 31.576 83.9239 31.448 83.9719 31.304C84.0679 30.952 84.2279 30.68 84.4519 30.488C84.6919 30.312 84.9479 30.224 85.2199 30.224C85.3799 30.224 85.5319 30.248 85.6759 30.296C85.7399 30.312 86.1319 30.456 86.8519 30.728C87.5879 31.016 88.2519 31.16 88.8439 31.16C90.0279 31.16 90.9079 30.92 91.4839 30.44C92.0759 29.976 92.3719 29.312 92.3719 28.448V27.296C92.0199 27.792 91.4839 28.24 90.7639 28.64C90.0599 29.04 89.2999 29.24 88.4839 29.24C87.3639 29.24 86.3399 28.96 85.4119 28.4C84.4999 27.824 83.7799 27.032 83.2519 26.024C82.7239 25.016 82.4599 23.872 82.4599 22.592C82.4599 21.312 82.7159 20.168 83.2279 19.16C83.7559 18.136 84.4679 17.344 85.3639 16.784C86.2759 16.208 87.2839 15.92 88.3879 15.92C89.2039 15.92 89.9639 16.088 90.6679 16.424C91.3719 16.76 91.9399 17.168 92.3719 17.648V17.384C92.3719 16.968 92.5079 16.624 92.7799 16.352C93.0519 16.064 93.3959 15.92 93.8119 15.92ZM88.8439 26.6C89.9159 26.6 90.7879 26.224 91.4599 25.472C92.1479 24.704 92.4919 23.744 92.4919 22.592C92.4919 21.44 92.1479 20.48 91.4599 19.712C90.7879 18.944 89.9159 18.56 88.8439 18.56C87.7719 18.56 86.8999 18.944 86.2279 19.712C85.5559 20.48 85.2199 21.44 85.2199 22.592C85.2199 23.744 85.5559 24.704 86.2279 25.472C86.8999 26.224 87.7719 26.6 88.8439 26.6ZM108.642 15.92C109.058 15.92 109.402 16.056 109.674 16.328C109.946 16.6 110.082 16.952 110.082 17.384V27.536C110.082 27.952 109.946 28.304 109.674 28.592C109.402 28.864 109.058 29 108.642 29C108.226 29 107.882 28.864 107.61 28.592C107.354 28.32 107.218 27.976 107.202 27.56C106.802 28.024 106.258 28.424 105.57 28.76C104.898 29.08 104.186 29.24 103.434 29.24C102.33 29.24 101.33 28.96 100.434 28.4C99.5382 27.824 98.8262 27.032 98.2982 26.024C97.7862 25.016 97.5302 23.872 97.5302 22.592C97.5302 21.312 97.7862 20.168 98.2982 19.16C98.8102 18.136 99.5062 17.344 100.386 16.784C101.282 16.208 102.266 15.92 103.338 15.92C104.106 15.92 104.826 16.064 105.498 16.352C106.17 16.624 106.738 16.976 107.202 17.408V17.384C107.202 16.968 107.338 16.624 107.61 16.352C107.882 16.064 108.226 15.92 108.642 15.92ZM103.794 26.6C104.834 26.6 105.682 26.224 106.338 25.472C106.994 24.704 107.322 23.744 107.322 22.592C107.322 21.44 106.994 20.48 106.338 19.712C105.682 18.944 104.834 18.56 103.794 18.56C102.77 18.56 101.93 18.944 101.274 19.712C100.618 20.48 100.29 21.44 100.29 22.592C100.29 23.744 100.61 24.704 101.25 25.472C101.906 26.224 102.754 26.6 103.794 26.6ZM120.067 15.92C121.699 15.92 122.827 16.408 123.451 17.384C124.075 18.344 124.387 19.68 124.387 21.392V27.536C124.387 27.952 124.251 28.304 123.979 28.592C123.707 28.864 123.363 29 122.947 29C122.531 29 122.187 28.864 121.915 28.592C121.643 28.304 121.507 27.952 121.507 27.536V21.392C121.507 20.512 121.323 19.824 120.955 19.328C120.587 18.816 119.955 18.56 119.059 18.56C118.131 18.56 117.403 18.832 116.875 19.376C116.347 19.904 116.083 20.576 116.083 21.392V27.536C116.083 27.952 115.947 28.304 115.675 28.592C115.403 28.864 115.059 29 114.643 29C114.227 29 113.883 28.864 113.611 28.592C113.339 28.304 113.203 27.952 113.203 27.536V17.624C113.203 17.208 113.339 16.864 113.611 16.592C113.883 16.304 114.227 16.16 114.643 16.16C115.059 16.16 115.403 16.304 115.675 16.592C115.947 16.864 116.083 17.208 116.083 17.624V18.032C116.515 17.456 117.075 16.96 117.763 16.544C118.467 16.128 119.235 15.92 120.067 15.92ZM131.148 14.624C131.148 14.992 131.012 15.456 130.74 16.016C130.468 16.576 130.116 17.064 129.684 17.48C129.252 17.896 128.804 18.104 128.34 18.104C127.988 18.104 127.708 18.032 127.5 17.888C127.292 17.728 127.188 17.48 127.188 17.144C127.188 16.888 127.252 16.712 127.38 16.616C127.508 16.504 127.644 16.424 127.788 16.376C127.948 16.328 128.06 16.288 128.124 16.256C128.572 16.016 128.796 15.696 128.796 15.296C128.796 15.12 128.708 14.968 128.532 14.84C128.372 14.696 128.156 14.624 127.884 14.624C127.612 14.624 127.388 14.68 127.212 14.792C127.02 14.712 126.868 14.608 126.756 14.48C126.66 14.352 126.612 14.16 126.612 13.904C126.612 13.584 126.732 13.288 126.972 13.016C127.212 12.728 127.508 12.504 127.86 12.344C128.212 12.168 128.556 12.08 128.892 12.08C129.596 12.08 130.148 12.304 130.548 12.752C130.948 13.184 131.148 13.808 131.148 14.624ZM133.366 27.008C133.222 26.816 133.15 26.576 133.15 26.288C133.15 25.872 133.358 25.52 133.774 25.232C133.998 25.088 134.23 25.016 134.47 25.016C134.806 25.016 135.126 25.168 135.43 25.472C135.91 25.968 136.406 26.336 136.918 26.576C137.446 26.816 138.078 26.936 138.814 26.936C140.062 26.888 140.686 26.416 140.686 25.52C140.686 25.056 140.47 24.704 140.038 24.464C139.622 24.224 138.966 23.984 138.07 23.744C137.142 23.488 136.382 23.232 135.79 22.976C135.214 22.72 134.71 22.336 134.278 21.824C133.862 21.296 133.654 20.592 133.654 19.712C133.654 18.944 133.87 18.28 134.302 17.72C134.75 17.144 135.326 16.704 136.03 16.4C136.75 16.08 137.51 15.92 138.31 15.92C139.126 15.92 139.942 16.072 140.758 16.376C141.574 16.68 142.214 17.128 142.678 17.72C142.886 17.976 142.99 18.264 142.99 18.584C142.99 18.952 142.838 19.256 142.534 19.496C142.31 19.672 142.054 19.76 141.766 19.76C141.414 19.76 141.126 19.648 140.902 19.424C140.614 19.072 140.238 18.792 139.774 18.584C139.326 18.376 138.814 18.272 138.238 18.272C137.022 18.272 136.414 18.712 136.414 19.592C136.414 19.944 136.526 20.232 136.75 20.456C136.974 20.664 137.254 20.832 137.59 20.96C137.942 21.072 138.43 21.216 139.054 21.392C139.918 21.632 140.638 21.88 141.214 22.136C141.79 22.392 142.278 22.784 142.678 23.312C143.078 23.84 143.278 24.536 143.278 25.4C143.278 26.184 143.046 26.872 142.582 27.464C142.118 28.04 141.518 28.48 140.782 28.784C140.062 29.088 139.318 29.24 138.55 29.24C137.494 29.24 136.51 29.064 135.598 28.712C134.686 28.36 133.942 27.792 133.366 27.008Z"
          fill="#00D884"/>
    <defs>
        <clipPath id="clip0_9:21">
            <rect width="44.1121" height="40" fill="white"/>
        </clipPath>
    </defs>
</svg>
