<svg width="176" height="168" viewBox="0 0 176 168" fill="none" xmlns="http://www.w3.org/2000/svg">
<g clip-path="url(#clip0_2:21)">
<path d="M140.895 7.74635C139.748 5.4243 136.47 5.33142 135.098 7.52343C128.747 17.5361 117.377 23.7778 104.389 23.7778H88C66.2847 23.7778 48.6667 39.7535 48.6667 59.4444C48.6667 60.7448 48.8306 61.9894 48.974 63.2526C62.0441 54.7632 80.9118 47.5555 107.667 47.5555C109.469 47.5555 110.944 48.893 110.944 50.5278C110.944 52.1625 109.469 53.5 107.667 53.5C56.1646 53.5 34.3264 82.1262 29.4917 92.8819C28.1396 95.9099 29.7375 99.3651 33.0768 100.61C36.4365 101.873 40.2469 100.405 41.64 97.396C41.9472 96.7272 45.9215 88.4979 56.3695 80.5658C63.007 88.7208 75.6264 96.5043 92.1997 94.9068C124.363 92.789 147 66.6335 147 34.6078C147 25.2825 144.788 15.6227 140.895 7.74635Z" fill="white"/>
</g>
<path d="M40.0843 133.728C40.6843 133.728 41.2003 133.932 41.6323 134.34C42.0883 134.748 42.3163 135.24 42.3163 135.816C42.3163 136.128 42.2443 136.452 42.1003 136.788L33.2083 157.596C32.9923 158.052 32.6923 158.4 32.3083 158.64C31.9243 158.88 31.5163 159 31.0843 159C30.6763 158.976 30.2923 158.856 29.9323 158.64C29.5963 158.4 29.3323 158.064 29.1403 157.632L20.2483 136.752C20.1283 136.512 20.0683 136.212 20.0683 135.852C20.0683 135.204 20.3083 134.688 20.7883 134.304C21.2683 133.896 21.7603 133.692 22.2643 133.692C22.6723 133.692 23.0563 133.812 23.4163 134.052C23.7763 134.292 24.0523 134.64 24.2443 135.096L31.4803 152.124L38.1043 135.096C38.2963 134.664 38.5723 134.328 38.9323 134.088C39.2923 133.848 39.6763 133.728 40.0843 133.728ZM62.163 148.92C62.139 149.496 61.911 149.964 61.479 150.324C61.047 150.684 60.543 150.864 59.967 150.864H48.087C48.375 152.28 49.035 153.396 50.067 154.212C51.099 155.004 52.263 155.4 53.559 155.4C54.543 155.4 55.311 155.316 55.863 155.148C56.415 154.956 56.847 154.764 57.159 154.572C57.495 154.356 57.723 154.212 57.843 154.14C58.275 153.924 58.683 153.816 59.067 153.816C59.571 153.816 60.003 153.996 60.363 154.356C60.723 154.716 60.903 155.136 60.903 155.616C60.903 156.264 60.567 156.852 59.895 157.38C59.223 157.932 58.323 158.4 57.195 158.784C56.067 159.168 54.927 159.36 53.775 159.36C51.759 159.36 49.995 158.94 48.483 158.1C46.995 157.26 45.843 156.108 45.027 154.644C44.211 153.156 43.803 151.488 43.803 149.64C43.803 147.576 44.235 145.764 45.099 144.204C45.963 142.644 47.103 141.456 48.519 140.64C49.935 139.8 51.447 139.38 53.055 139.38C54.639 139.38 56.127 139.812 57.519 140.676C58.935 141.54 60.063 142.704 60.903 144.168C61.743 145.632 62.163 147.216 62.163 148.92ZM53.055 143.34C50.271 143.34 48.627 144.648 48.123 147.264H57.555V147.012C57.459 146.004 56.967 145.14 56.079 144.42C55.191 143.7 54.183 143.34 53.055 143.34ZM81.538 139.38C82.162 139.38 82.678 139.584 83.086 139.992C83.494 140.4 83.698 140.928 83.698 141.576V157.596C83.698 160.524 82.786 162.684 80.962 164.076C79.162 165.492 76.87 166.2 74.086 166.2C73.366 166.2 72.37 166.08 71.098 165.84C69.85 165.6 68.962 165.36 68.434 165.12C67.258 164.616 66.67 163.92 66.67 163.032C66.67 162.864 66.706 162.672 66.778 162.456C66.922 161.928 67.162 161.52 67.498 161.232C67.858 160.968 68.242 160.836 68.65 160.836C68.89 160.836 69.118 160.872 69.334 160.944C69.43 160.968 70.018 161.184 71.098 161.592C72.202 162.024 73.198 162.24 74.086 162.24C75.862 162.24 77.182 161.88 78.046 161.16C78.934 160.464 79.378 159.468 79.378 158.172V156.444C78.85 157.188 78.046 157.86 76.966 158.46C75.91 159.06 74.77 159.36 73.546 159.36C71.866 159.36 70.33 158.94 68.938 158.1C67.57 157.236 66.49 156.048 65.698 154.536C64.906 153.024 64.51 151.308 64.51 149.388C64.51 147.468 64.894 145.752 65.662 144.24C66.454 142.704 67.522 141.516 68.866 140.676C70.234 139.812 71.746 139.38 73.402 139.38C74.626 139.38 75.766 139.632 76.822 140.136C77.878 140.64 78.73 141.252 79.378 141.972V141.576C79.378 140.952 79.582 140.436 79.99 140.028C80.398 139.596 80.914 139.38 81.538 139.38ZM74.086 155.4C75.694 155.4 77.002 154.836 78.01 153.708C79.042 152.556 79.558 151.116 79.558 149.388C79.558 147.66 79.042 146.22 78.01 145.068C77.002 143.916 75.694 143.34 74.086 143.34C72.478 143.34 71.17 143.916 70.162 145.068C69.154 146.22 68.65 147.66 68.65 149.388C68.65 151.116 69.154 152.556 70.162 153.708C71.17 154.836 72.478 155.4 74.086 155.4ZM103.783 139.38C104.407 139.38 104.923 139.584 105.331 139.992C105.739 140.4 105.943 140.928 105.943 141.576V156.804C105.943 157.428 105.739 157.956 105.331 158.388C104.923 158.796 104.407 159 103.783 159C103.159 159 102.643 158.796 102.235 158.388C101.851 157.98 101.647 157.464 101.623 156.84C101.023 157.536 100.207 158.136 99.1755 158.64C98.1675 159.12 97.0995 159.36 95.9715 159.36C94.3155 159.36 92.8155 158.94 91.4715 158.1C90.1275 157.236 89.0595 156.048 88.2675 154.536C87.4995 153.024 87.1155 151.308 87.1155 149.388C87.1155 147.468 87.4995 145.752 88.2675 144.24C89.0355 142.704 90.0795 141.516 91.3995 140.676C92.7435 139.812 94.2195 139.38 95.8275 139.38C96.9795 139.38 98.0595 139.596 99.0675 140.028C100.075 140.436 100.927 140.964 101.623 141.612V141.576C101.623 140.952 101.827 140.436 102.235 140.028C102.643 139.596 103.159 139.38 103.783 139.38ZM96.5115 155.4C98.0715 155.4 99.3435 154.836 100.327 153.708C101.311 152.556 101.803 151.116 101.803 149.388C101.803 147.66 101.311 146.22 100.327 145.068C99.3435 143.916 98.0715 143.34 96.5115 143.34C94.9755 143.34 93.7155 143.916 92.7315 145.068C91.7475 146.22 91.2555 147.66 91.2555 149.388C91.2555 151.116 91.7355 152.556 92.6955 153.708C93.6795 154.836 94.9515 155.4 96.5115 155.4ZM120.921 139.38C123.369 139.38 125.061 140.112 125.997 141.576C126.933 143.016 127.401 145.02 127.401 147.588V156.804C127.401 157.428 127.197 157.956 126.789 158.388C126.381 158.796 125.865 159 125.241 159C124.617 159 124.101 158.796 123.693 158.388C123.285 157.956 123.081 157.428 123.081 156.804V147.588C123.081 146.268 122.805 145.236 122.253 144.492C121.701 143.724 120.753 143.34 119.409 143.34C118.017 143.34 116.925 143.748 116.133 144.564C115.341 145.356 114.945 146.364 114.945 147.588V156.804C114.945 157.428 114.741 157.956 114.333 158.388C113.925 158.796 113.409 159 112.785 159C112.161 159 111.645 158.796 111.237 158.388C110.829 157.956 110.625 157.428 110.625 156.804V141.936C110.625 141.312 110.829 140.796 111.237 140.388C111.645 139.956 112.161 139.74 112.785 139.74C113.409 139.74 113.925 139.956 114.333 140.388C114.741 140.796 114.945 141.312 114.945 141.936V142.548C115.593 141.684 116.433 140.94 117.465 140.316C118.521 139.692 119.673 139.38 120.921 139.38ZM137.542 137.436C137.542 137.988 137.338 138.684 136.93 139.524C136.522 140.364 135.994 141.096 135.346 141.72C134.698 142.344 134.026 142.656 133.33 142.656C132.802 142.656 132.382 142.548 132.07 142.332C131.758 142.092 131.602 141.72 131.602 141.216C131.602 140.832 131.698 140.568 131.89 140.424C132.082 140.256 132.286 140.136 132.502 140.064C132.742 139.992 132.91 139.932 133.006 139.884C133.678 139.524 134.014 139.044 134.014 138.444C134.014 138.18 133.882 137.952 133.618 137.76C133.378 137.544 133.054 137.436 132.646 137.436C132.238 137.436 131.902 137.52 131.638 137.688C131.35 137.568 131.122 137.412 130.954 137.22C130.81 137.028 130.738 136.74 130.738 136.356C130.738 135.876 130.918 135.432 131.278 135.024C131.638 134.592 132.082 134.256 132.61 134.016C133.138 133.752 133.654 133.62 134.158 133.62C135.214 133.62 136.042 133.956 136.642 134.628C137.242 135.276 137.542 136.212 137.542 137.436ZM140.869 156.012C140.653 155.724 140.545 155.364 140.545 154.932C140.545 154.308 140.857 153.78 141.481 153.348C141.817 153.132 142.165 153.024 142.525 153.024C143.029 153.024 143.509 153.252 143.965 153.708C144.685 154.452 145.429 155.004 146.197 155.364C146.989 155.724 147.937 155.904 149.041 155.904C150.913 155.832 151.849 155.124 151.849 153.78C151.849 153.084 151.525 152.556 150.877 152.196C150.253 151.836 149.269 151.476 147.925 151.116C146.533 150.732 145.393 150.348 144.505 149.964C143.641 149.58 142.885 149.004 142.237 148.236C141.613 147.444 141.301 146.388 141.301 145.068C141.301 143.916 141.625 142.92 142.273 142.08C142.945 141.216 143.809 140.556 144.865 140.1C145.945 139.62 147.085 139.38 148.285 139.38C149.509 139.38 150.733 139.608 151.957 140.064C153.181 140.52 154.141 141.192 154.837 142.08C155.149 142.464 155.305 142.896 155.305 143.376C155.305 143.928 155.077 144.384 154.621 144.744C154.285 145.008 153.901 145.14 153.469 145.14C152.941 145.14 152.509 144.972 152.173 144.636C151.741 144.108 151.177 143.688 150.481 143.376C149.809 143.064 149.041 142.908 148.177 142.908C146.353 142.908 145.441 143.568 145.441 144.888C145.441 145.416 145.609 145.848 145.945 146.184C146.281 146.496 146.701 146.748 147.205 146.94C147.733 147.108 148.465 147.324 149.401 147.588C150.697 147.948 151.777 148.32 152.641 148.704C153.505 149.088 154.237 149.676 154.837 150.468C155.437 151.26 155.737 152.304 155.737 153.6C155.737 154.776 155.389 155.808 154.693 156.696C153.997 157.56 153.097 158.22 151.993 158.676C150.913 159.132 149.797 159.36 148.645 159.36C147.061 159.36 145.585 159.096 144.217 158.568C142.849 158.04 141.733 157.188 140.869 156.012Z" fill="white"/>
<defs>
<clipPath id="clip0_2:21">
<rect width="118" height="107" fill="white" transform="translate(29)"/>
</clipPath>
</defs>
</svg>
